<?xml version="1.0" encoding="UTF-8"?>
<!DOCTYPE svg PUBLIC "-//W3C//DTD SVG 1.1//EN" "http://www.w3.org/Graphics/SVG/1.1/DTD/svg11.dtd">
<!-- Creator: CorelDRAW X7 -->
<svg xmlns="http://www.w3.org/2000/svg" xml:space="preserve" width="45mm" height="15mm" version="1.1" style="shape-rendering:geometricPrecision; text-rendering:geometricPrecision; image-rendering:optimizeQuality; fill-rule:evenodd; clip-rule:evenodd"
viewBox="0 0 4500 1500"
 xmlns:xlink="http://www.w3.org/1999/xlink">
 <defs>
  <style type="text/css">
   <![CDATA[
    .fil0 {fill:none}
    .fil1 {fill:url(#id0);fill-rule:nonzero}
   ]]>
  </style>
  <linearGradient id="id0" gradientUnits="userSpaceOnUse" x1="379.64" y1="750" x2="4120.37" y2="750">
   <stop offset="0" style="stop-opacity:1; stop-color:#AC00FF"/>
   <stop offset="1" style="stop-opacity:1; stop-color:#0285F8"/>
  </linearGradient>
 </defs>
 <g id="Layer_x0020_1">
  <metadata id="CorelCorpID_0Corel-Layer"/>
  <rect class="fil0" width="4500" height="1500"/>
  <path class="fil1" d="M1040 371c24,0 43,8 57,23 15,15 22,35 22,59l0 601c0,24 -7,42 -20,55 -14,14 -31,21 -53,21 -22,0 -39,-7 -52,-21 -14,-13 -20,-31 -20,-55l0 -373 -151 282c-10,19 -20,32 -32,41 -12,8 -26,12 -42,12 -15,0 -29,-4 -41,-12 -12,-9 -23,-22 -33,-41l-150 -277 0 368c0,23 -7,41 -20,55 -14,14 -31,21 -53,21 -22,0 -39,-7 -52,-21 -14,-13 -20,-31 -20,-55l0 -601c0,-24 7,-44 21,-59 15,-15 34,-23 57,-23 34,0 60,18 77,54l215 408 214 -408c19,-36 45,-54 76,-54zm555 759c-32,1 -57,-4 -74,-15 -16,-11 -25,-29 -25,-52 0,-21 6,-37 16,-47 11,-10 28,-16 50,-18l34 -2c51,-2 76,-32 76,-90l0 -453c0,-25 8,-44 24,-59 15,-15 35,-23 60,-23 25,0 45,8 60,23 15,15 23,34 23,59l0 451c0,140 -70,214 -210,223l-34 3zm735 3c-74,0 -139,-16 -193,-47 -55,-32 -97,-76 -127,-134 -30,-57 -44,-125 -44,-203 0,-77 14,-145 44,-202 30,-58 72,-102 127,-133 54,-31 119,-47 193,-47 74,0 138,16 193,47 55,31 97,75 127,133 29,57 44,125 44,202 0,78 -15,146 -44,203 -30,58 -72,102 -127,134 -55,31 -119,47 -193,47zm0 -128c62,0 111,-22 146,-66 36,-44 54,-107 54,-190 0,-82 -18,-145 -53,-189 -35,-43 -84,-65 -147,-65 -63,0 -112,22 -147,65 -35,44 -52,107 -52,189 0,83 17,146 53,190 35,44 84,66 146,66zm970 -268c43,12 76,35 100,66 23,31 35,70 35,116 0,63 -23,112 -69,149 -46,37 -110,55 -191,55l-278 0c-24,0 -43,-6 -57,-20 -13,-13 -20,-32 -20,-57l0 -592c0,-25 7,-44 20,-57 14,-14 33,-20 57,-20l267 0c78,0 139,17 185,52 46,34 68,82 68,142 0,38 -10,72 -31,102 -21,29 -50,50 -86,64zm-319 -56l156 0c42,0 73,-8 93,-22 21,-15 31,-37 31,-66 0,-31 -10,-54 -31,-69 -20,-14 -51,-21 -93,-21l-156 0 0 178zm175 316c44,0 75,-7 95,-22 20,-15 30,-39 30,-72 0,-33 -10,-58 -30,-73 -20,-16 -51,-23 -95,-23l-175 0 0 190 175 0zm663 136c-56,0 -108,-7 -156,-20 -48,-13 -87,-31 -118,-55 -10,-8 -18,-16 -22,-25 -5,-9 -7,-20 -7,-34 0,-17 5,-33 16,-46 11,-14 24,-20 38,-20 8,0 15,1 23,3 7,3 16,7 27,14 30,19 61,33 92,41 31,9 65,14 102,14 47,0 83,-8 107,-24 25,-15 37,-37 37,-66 0,-22 -11,-40 -34,-53 -23,-14 -64,-26 -122,-38 -66,-14 -118,-30 -158,-49 -39,-19 -67,-43 -85,-71 -18,-28 -27,-63 -27,-103 0,-44 13,-84 38,-120 26,-36 62,-63 107,-84 46,-20 97,-30 154,-30 101,0 183,25 248,75 11,9 18,18 23,26 4,9 7,20 7,33 0,17 -6,33 -17,46 -11,14 -23,20 -37,20 -8,0 -15,-1 -22,-3 -7,-2 -16,-7 -28,-14 -29,-18 -56,-32 -80,-41 -24,-9 -55,-14 -93,-14 -43,0 -77,9 -101,25 -25,17 -37,40 -37,69 0,16 4,30 14,41 9,11 25,21 48,29 22,9 53,18 94,27 96,21 165,48 207,81 42,34 63,79 63,137 0,45 -12,85 -37,120 -25,34 -61,61 -106,80 -46,19 -98,29 -158,29zm-2314 -622c16,-1 29,2 38,11 9,8 14,20 14,37 0,17 -4,30 -13,39 -8,8 -23,13 -45,15l-24 3c-29,3 -50,12 -63,28 -13,16 -19,37 -19,62l0 151c0,19 -6,33 -17,42 -12,10 -26,15 -43,15 -17,0 -32,-5 -43,-15 -12,-9 -17,-23 -17,-42l0 -291c0,-18 6,-31 17,-41 12,-9 26,-14 42,-14 16,0 29,5 40,14 11,9 16,22 16,38l0 22c9,-23 24,-40 43,-53 20,-12 41,-19 63,-20l11 -1zm-168 490c35,0 64,28 64,63 0,35 -29,64 -64,64 -35,0 -63,-29 -63,-64 0,-35 28,-63 63,-63z"/>
 </g>
</svg>
